<?xml version="1.0" encoding="UTF-8"?>
<svg id="Capa_1" data-name="Capa 1" xmlns="http://www.w3.org/2000/svg" viewBox="0 0 1200 679.58">
  <defs>
    <style>
      .cls-1 {
        fill: #fff;
      }
    </style>
  </defs>
  <g>
    <g>
      <path class="cls-1" d="M51.27,361.17c1.39-13.62,2.5-25.02,3.89-37.26.56-3.06,1.11-3.89,1.95-3.89,1.39,0,1.67.84,3.34,3.62,2.78,4.17,15.57,28.36,22.24,40.04l53.94,100.65,46.71-88.42c13.62-22.52,20.3-34.75,28.08-50.6,2.5-3.89,3.62-5.28,4.73-5.28s1.67.84,2.23,5.84c1.11,11.4,2.5,25.02,3.89,37.53,5.28,55.61,12.23,124.56,15.85,138.46-2.22-.56-5.84-.56-11.68-.56-6.67,0-12.51.28-15.85.84,0-14.74-5.84-92.31-8.34-132.35-21.69,41.15-46.43,90.08-66.17,130.12-2.22,4.17-3.06,3.89-5,.55-22.8-48.1-45.6-90.36-64.51-130.12-2.78,41.7-8.62,115.94-8.62,131.51-2.78-.56-7.51-.56-10.01-.56-6.4,0-11.68.28-14.18.84,2.78-13.07,11.68-85.64,17.52-140.97Z"/>
      <path class="cls-1" d="M314.31,441.52c-.56,0-1.11,0-1.11.55-7.51,20.3-18.35,48.66-21.13,59.78-2.78-.56-5-.56-10.57-.56-5.84,0-11.96.56-14.18.84,6.12-12.51,15.29-33.36,25.58-57l47.82-115.11c3.34-7.23,4.73-10.01,6.12-10.01,1.11,0,2.5,1.95,6.12,10.01,2.78,5.84,26.97,58.94,48.93,106.77,11.4,25.3,25.03,55.61,31.42,65.06-4.73-.28-9.45-.56-12.23-.56-6.4,0-14.18.28-17.52.84-3.89-10.84-16.68-41.43-24.47-60.06q-.28-.55-1.11-.55h-63.67ZM372.14,426.51c.84,0,.84-.28.84-.83l-28.36-66.45-25.58,66.45c-.28.56-.28.83.56.83h52.55Z"/>
      <path class="cls-1" d="M470.02,391.75c0-33.64-.56-60.06-3.06-68.12,4.73.56,8.06.56,12.23.56,4.73,0,24.19-1.11,33.09-1.11,17.52,0,33.36,2.22,43.93,8.62,12.51,7.51,21.69,21.41,21.69,38.92,0,20.3-10.28,36.98-29.75,50.05,15.57,20.02,33.09,43.37,49.77,61.17,10.29,11.12,18.35,17.24,22.52,19.18-3.06,1.39-10.84,1.95-16.68,1.95-12.23,0-18.07-2.78-27.8-12.79-13.62-13.07-36.15-46.15-46.99-60.33-1.11-1.11-1.67-1.67-3.34-1.67h-31.97c-.84,0-1.11,0-1.11.83v7.51c0,29.47,1.11,54.78,2.22,65.34-2.22-.56-6.95-.56-11.4-.56-4.73,0-12.79.28-15.57.84,1.11-8.62,2.22-38.09,2.22-68.68v-41.71ZM492.54,410.94c0,1.39.28,1.67.84,1.67,4.73,1.11,16.68,1.95,29.47,1.95,7.23,0,11.12-.84,13.9-2.78,9.73-6.67,18.07-18.63,18.07-35.03,0-25.02-16.68-40.04-43.65-40.04-7.51,0-14.46.28-17.79,1.11-.84.28-.84.56-.84,1.67v71.46Z"/>
      <path class="cls-1" d="M673.56,441.52c-.56,0-1.11,0-1.11.55-7.51,20.3-18.35,48.66-21.13,59.78-2.78-.56-5-.56-10.57-.56-5.84,0-11.96.56-14.18.84,6.12-12.51,15.29-33.36,25.58-57l47.82-115.11c3.34-7.23,4.73-10.01,6.12-10.01,1.11,0,2.5,1.95,6.12,10.01,2.78,5.84,26.97,58.94,48.93,106.77,11.4,25.3,25.03,55.61,31.42,65.06-4.73-.28-9.45-.56-12.23-.56-6.4,0-14.18.28-17.52.84-3.89-10.84-16.68-41.43-24.47-60.06q-.28-.55-1.11-.55h-63.67ZM731.39,426.51c.84,0,.84-.28.84-.83l-28.36-66.45-25.58,66.45c-.28.56-.28.83.56.83h52.55Z"/>
      <path class="cls-1" d="M820.09,470.44c7.23,9.18,22.52,19.19,41.43,19.19,22.52,0,33.92-13.62,33.92-30.31,0-14.18-5-23.36-25.86-36.7l-12.23-7.79c-25.86-16.68-32.53-32.25-32.53-48.94,0-25.02,19.74-45.88,53.94-45.88,9.45,0,18.35,1.11,23.91,2.22,6.67,1.11,10.84,1.67,12.79,1.95-.84,2.5-2.22,15.57-2.22,24.47-4.45-5.56-16.41-13.62-35.87-13.62-18.07,0-30.31,10.29-30.31,25.86,0,12.23,3.06,20.85,24.74,35.03l11.95,7.51c29.47,18.63,35.31,32.81,35.31,51.16,0,10.57-5.28,29.2-22.24,40.87-11.12,7.23-25.86,9.73-38.09,9.73-15.85,0-32.25-4.17-40.59-9.73.84-3.61,2.22-17.79,1.95-25.02Z"/>
      <path class="cls-1" d="M992.76,441.52c-.56,0-1.11,0-1.11.55-7.51,20.3-18.35,48.66-21.13,59.78-2.78-.56-5-.56-10.57-.56-5.84,0-11.96.56-14.18.84,6.12-12.51,15.29-33.36,25.58-57l47.82-115.11c3.34-7.23,4.73-10.01,6.12-10.01,1.11,0,2.5,1.95,6.12,10.01,2.78,5.84,26.97,58.94,48.93,106.77,11.4,25.3,25.03,55.61,31.42,65.06-4.73-.28-9.45-.56-12.23-.56-6.4,0-14.18.28-17.52.84-3.89-10.84-16.68-41.43-24.47-60.06q-.28-.55-1.11-.55h-63.67ZM1050.59,426.51c.84,0,.84-.28.84-.83l-28.36-66.45-25.58,66.45c-.28.56-.28.83.56.83h52.55Z"/>
    </g>
    <g>
      <path class="cls-1" d="M156.71,614.29l-13.94-41.34h4.49l13.05,38.92h-2.24l13.47-38.92h4.02l13.29,38.92h-2.12l13.17-38.92h4.19l-13.94,41.34h-4.61l-12.7-36.91h1.18l-12.76,36.91h-4.55Z"/>
      <path class="cls-1" d="M241.58,614.65c-3.11,0-5.99-.52-8.65-1.57-2.66-1.04-4.96-2.52-6.91-4.43-1.95-1.91-3.46-4.13-4.55-6.67-1.08-2.54-1.63-5.33-1.63-8.36s.54-5.82,1.63-8.36c1.08-2.54,2.6-4.76,4.55-6.67,1.95-1.91,4.24-3.39,6.88-4.43,2.64-1.04,5.53-1.57,8.68-1.57s5.99.52,8.62,1.57c2.64,1.04,4.93,2.51,6.88,4.4,1.95,1.89,3.46,4.11,4.55,6.67,1.08,2.56,1.63,5.35,1.63,8.39s-.54,5.83-1.63,8.39c-1.08,2.56-2.6,4.78-4.55,6.67-1.95,1.89-4.24,3.36-6.88,4.4-2.64,1.04-5.51,1.57-8.62,1.57ZM241.58,610.75c2.48,0,4.77-.42,6.88-1.27,2.11-.85,3.94-2.04,5.49-3.6,1.55-1.55,2.77-3.37,3.63-5.43.87-2.07,1.3-4.34,1.3-6.82s-.44-4.75-1.3-6.82c-.87-2.07-2.08-3.88-3.63-5.43-1.56-1.55-3.39-2.76-5.49-3.6-2.11-.85-4.4-1.27-6.88-1.27s-4.78.42-6.91,1.27c-2.13.85-3.97,2.05-5.52,3.6-1.56,1.56-2.78,3.37-3.66,5.43-.88,2.07-1.33,4.34-1.33,6.82s.44,4.7,1.33,6.79c.89,2.09,2.11,3.91,3.66,5.46,1.55,1.56,3.4,2.76,5.52,3.6,2.12.85,4.43,1.27,6.91,1.27Z"/>
      <path class="cls-1" d="M284.87,614.29v-41.34h3.6l28.53,35.91h-1.89v-35.91h4.31v41.34h-3.6l-28.47-35.91h1.89v35.91h-4.37Z"/>
      <path class="cls-1" d="M344.7,614.29v-41.34h16.83c4.41,0,8.28.88,11.6,2.63,3.33,1.75,5.92,4.18,7.77,7.29,1.85,3.11,2.78,6.7,2.78,10.75s-.93,7.64-2.78,10.75c-1.85,3.11-4.44,5.54-7.77,7.29-3.33,1.75-7.2,2.63-11.6,2.63h-16.83ZM349.07,610.51h12.22c3.66,0,6.84-.72,9.54-2.16,2.7-1.44,4.79-3.43,6.29-5.96,1.5-2.54,2.24-5.46,2.24-8.77s-.75-6.28-2.24-8.8c-1.5-2.52-3.59-4.5-6.29-5.94-2.7-1.44-5.88-2.16-9.54-2.16h-12.22v33.78Z"/>
      <path class="cls-1" d="M409.67,610.51h24.87v3.78h-29.24v-41.34h28.35v3.78h-23.98v33.78ZM409.2,591.44h21.85v3.72h-21.85v-3.72Z"/>
      <path class="cls-1" d="M456.62,614.29v-41.34h15.47c3.51,0,6.52.56,9.04,1.68s4.46,2.74,5.82,4.84c1.36,2.11,2.04,4.66,2.04,7.65s-.68,5.42-2.04,7.53c-1.36,2.11-3.3,3.72-5.82,4.84-2.52,1.12-5.53,1.68-9.04,1.68h-13.05l1.95-2.01v15.12h-4.37ZM460.99,599.53l-1.95-2.07h12.93c4.14,0,7.28-.9,9.42-2.72,2.14-1.81,3.22-4.35,3.22-7.62s-1.07-5.87-3.22-7.68c-2.15-1.81-5.29-2.71-9.42-2.71h-12.93l1.95-2.07v24.86ZM484.85,614.29l-10.63-15h4.72l10.69,15h-4.78Z"/>
      <path class="cls-1" d="M515.51,614.29h-4.37v-41.34h28.35v3.78h-23.98v37.56ZM515.04,592.97h21.85v3.78h-21.85v-3.78Z"/>
      <path class="cls-1" d="M576.99,614.65c-5.28,0-9.43-1.52-12.46-4.55-3.03-3.03-4.55-7.52-4.55-13.47v-23.68h4.37v23.51c0,4.88,1.1,8.49,3.31,10.81,2.2,2.32,5.32,3.48,9.33,3.48s7.18-1.16,9.39-3.48c2.2-2.32,3.31-5.93,3.31-10.81v-23.51h4.25v23.68c0,5.95-1.51,10.43-4.52,13.47-3.01,3.03-7.16,4.55-12.43,4.55Z"/>
      <path class="cls-1" d="M618.92,614.29v-41.34h4.37v37.56h23.15v3.78h-27.52Z"/>
      <path class="cls-1" d="M692.81,614.29v-41.34h4.37v37.56h23.15v3.78h-27.52Z"/>
      <path class="cls-1" d="M739.41,614.29v-41.34h4.37v41.34h-4.37Z"/>
      <path class="cls-1" d="M780.34,614.29l-18.31-41.34h4.73l17.13,38.92h-2.6l17.25-38.92h4.43l-18.31,41.34h-4.31Z"/>
      <path class="cls-1" d="M820.74,614.29v-41.34h4.37v41.34h-4.37Z"/>
      <path class="cls-1" d="M850.38,614.29v-41.34h3.6l28.53,35.91h-1.89v-35.91h4.31v41.34h-3.6l-28.47-35.91h1.89v35.91h-4.37Z"/>
      <path class="cls-1" d="M928.35,614.65c-3.15,0-6.05-.52-8.71-1.57-2.66-1.04-4.96-2.51-6.91-4.4-1.95-1.89-3.46-4.11-4.55-6.67-1.08-2.56-1.63-5.35-1.63-8.39s.54-5.83,1.63-8.39c1.08-2.56,2.61-4.78,4.58-6.67,1.97-1.89,4.28-3.36,6.94-4.4,2.66-1.04,5.56-1.57,8.71-1.57s6.03.49,8.65,1.48c2.62.99,4.85,2.48,6.7,4.49l-2.72,2.78c-1.73-1.73-3.64-2.97-5.73-3.72-2.09-.75-4.33-1.12-6.74-1.12-2.56,0-4.91.42-7.06,1.27s-4.02,2.05-5.61,3.6c-1.59,1.56-2.83,3.37-3.72,5.43-.88,2.07-1.33,4.34-1.33,6.82s.44,4.7,1.33,6.79c.89,2.09,2.13,3.91,3.72,5.46,1.6,1.56,3.46,2.76,5.61,3.6,2.15.85,4.48,1.27,7,1.27,2.36,0,4.6-.35,6.7-1.06,2.11-.71,4.05-1.91,5.82-3.6l2.48,3.31c-1.97,1.73-4.27,3.04-6.91,3.93-2.64.89-5.4,1.33-8.27,1.33ZM939.33,608.86v-15.24h4.19v15.77l-4.19-.53Z"/>
    </g>
    <path class="cls-1" d="M619.2,51.98c-42.85-34.48-114.6-24.76-144.53,22.13-29.38,39.17-16.41,107.54,32.23,118.3,3.25,1.17,5.48-1.12,3.72-3.57-2.2-2.41-4.18-4.99-5.93-7.7-4.31-6.66.22-15.46,8.16-15.46h12.89c.24,2.03.59,4.11,1.22,6.28,2.55,8.32,9.12,13.99,12.46,21.46,10.85,17.89,9.51,39.69,15.59,59.03l1.68,6.2c2.25-2.55,2.15-2.53,2.39-2.89,9.73-13.99,20.78-25.27,33.32-34.36l19.85-14.01c27.81-18.64,43.69-51.45,44.12-86.42-.73-27.34-15.88-53.27-37.16-68.99ZM618.33,127.62c1.69,7.08,2.05,14.48,1.03,21.77-.68,4.82-4.93,8.37-9.8,8.37h-26.53c-.03-1.12-.14-2.24-.32-3.35-.29-1.17-.63-2.26-1.02-3.31-1.34-3.65-.71-7.72,2.04-10.46l17.96-17.96c5.54-5.54,14.83-2.68,16.65,4.94ZM561.01,93.89c0-6.47,6.11-11.12,12.39-9.58,6.64,1.63,13.17,4.38,19.36,8.41,2.56,1.49,4.94,3.16,7.15,4.99,4.53,3.77,4.98,10.56.81,14.73l-20.81,20.81c-3.18,3.18-7.95,3.51-11.98,1.52-.25-.12-.5-.24-.76-.36-3.65-1.66-6.16-5.08-6.16-9.09v-31.42ZM528.79,148.16c-.5.95-.95,1.93-1.34,2.95-1.51,3.88-4.96,6.65-9.12,6.65h-14.22c-5.22,0-9.64-4.06-9.9-9.27-.04-.77-.06-1.55-.08-2.32-.16-6.56.67-12.75,2.32-18.52,2.08-7.29,11.17-9.74,16.53-4.38l13.83,13.83c2.91,2.91,3.91,7.43,1.99,11.07ZM533.34,132.42l-19.12-19.12c-3.9-3.9-3.98-10.4.12-14.09,7.44-6.69,16.44-11.59,26.14-14.29,6.31-1.76,12.6,2.97,12.6,9.52v29.89c0,4.35-2.92,7.98-7.03,9.41-.6.21-1.19.44-1.78.68-3.75,1.56-8.05.87-10.92-2ZM578.99,209.92c-5.93,6.97-11.06,14.64-15.4,22.73,1.35-7.79,2.16-15.66,1.97-23.76-.75-13.44-6.48-26.17-14.92-36.46-3.43-4.17-4.04-4.54-5.01-6.83-3.63-8.22,3.91-18.95,14.8-17.99,12.95.76,19.36,17.74,11.42,28.91-.59.84.5,1.98,1.37,1.37,2.65-1.76,4.8-4.14,6.4-6.88,1.86-3.18,5.05-5.33,8.74-5.33h19.96c2.32.19,5.01,1.1,3.82,4.28-.56.99-1.01,2.03-1.64,2.99-8.14,13.33-20.87,24.08-31.5,36.96Z"/>
  </g>
  <g>
    <path class="cls-1" d="M1152.74,472.95c.89,0,1.71.12,2.47.35.75.23,1.41.58,1.97,1.04.56.46.99,1.03,1.31,1.71.32.68.47,1.46.47,2.33,0,.7-.1,1.38-.3,2.04-.2.66-.54,1.27-1,1.81-.46.54-1.07.98-1.82,1.31-.75.33-1.69.5-2.81.5h-2.6v6.46h-2.36v-17.56h4.66ZM1152.99,481.77c.7,0,1.27-.11,1.74-.32.46-.21.82-.48,1.08-.81.26-.33.45-.68.56-1.06.11-.37.17-.74.17-1.09s-.06-.72-.18-1.09c-.12-.37-.32-.72-.58-1.06-.27-.33-.62-.6-1.04-.81-.43-.21-.95-.32-1.57-.32h-2.72v6.56h2.55ZM1155.88,483.13l4.59,7.38h-2.72l-4.69-7.31,2.82-.07Z"/>
    <path class="cls-1" d="M1152.78,501.3c-10.37,0-18.81-8.44-18.81-18.81s8.44-18.81,18.81-18.81,18.81,8.44,18.81,18.81-8.44,18.81-18.81,18.81ZM1152.78,466.49c-8.82,0-15.99,7.17-15.99,15.99s7.17,15.99,15.99,15.99,15.99-7.17,15.99-15.99-7.17-15.99-15.99-15.99Z"/>
  </g>
</svg>